<svg id="_x33_0" enable-background="new 0 0 64 64" height="512" viewBox="0 0 64 64" width="512" xmlns="http://www.w3.org/2000/svg"><g><path d="m53 20.184v-2.184h-2v2h-2v3c0 1.654 1.346 3 3 3 .552 0 1 .449 1 1v1h-1c-.552 0-1-.449-1-1v-1h-2v1c0 1.302.839 2.402 2 2.816v2.184h2v-2h2v-3c0-1.654-1.346-3-3-3-.552 0-1-.449-1-1v-1h1c.552 0 1 .449 1 1v1h2v-1c0-1.302-.839-2.402-2-2.816z"/><path d="m63 25c0-6.065-4.935-11-11-11s-11 4.935-11 11c0 2.171.629 4.239 1.791 6.011-2.6.034-5.051.69-7.213 1.828-.802-1.388-1.895-2.585-3.237-3.479-1.291-.861-2.786-1.432-4.324-1.652l-4.209-.602-.582-2.325c1.715-1.073 2.991-2.773 3.511-4.78h.263c2.206 0 4-1.794 4-4 0-.946-.344-1.806-.896-2.491l.72-2.685c.117-.466.176-.944.176-1.423 0-2.454-1.55-4.666-3.855-5.504l-6.578-2.392c-.924-.336-1.889-.506-2.87-.506-2.629 0-5.14 1.255-6.716 3.358l-.508.676c-1.956.258-3.473 1.939-3.473 3.966 0 1.609.565 3.587.871 4.538-.537.681-.871 1.529-.871 2.462 0 2.206 1.794 4 4 4h.263c.519 2.007 1.796 3.707 3.511 4.78l-.582 2.325-4.209.602c-1.538.22-3.033.792-4.324 1.652-2.917 1.944-4.659 5.199-4.659 8.705v17.936h28.782c2.884 4.222 7.732 7 13.218 7 8.822 0 16-7.178 16-16 0-4.388-1.777-8.366-4.647-11.26 4.937-1.081 8.647-5.483 8.647-10.74zm-23.858 29c-.583-1.701-1.006-3.701-1.105-6h9.927c-.1 2.295-.526 4.297-1.112 6zm6.901 2c-1.068 2.271-2.309 3.809-3.045 4.598-.739-.788-1.983-2.322-3.051-4.598zm-6.086-18c1.068-2.27 2.309-3.808 3.045-4.598.739.787 1.983 2.322 3.051 4.598zm6.901 2c.583 1.701 1.006 3.701 1.105 6h-9.927c.1-2.295.526-4.297 1.113-6zm-9.109-2h-5.457c2.06-2.448 4.942-4.173 8.217-4.765-.874 1.117-1.901 2.703-2.76 4.765zm-6.855 2h6.13c-.532 1.737-.899 3.741-.987 6h-6.986c.154-2.175.804-4.211 1.843-6zm5.142 8c.089 2.259.455 4.263.987 6h-6.13c-1.039-1.789-1.689-3.825-1.844-6zm13.928 0h6.986c-.155 2.175-.805 4.211-1.844 6h-6.13c.532-1.737.899-3.741.988-6zm0-2c-.089-2.259-.455-4.263-.987-6h6.13c1.039 1.789 1.689 3.825 1.844 6zm-1.713-8c-.859-2.062-1.886-3.648-2.76-4.765 3.275.592 6.156 2.317 8.217 4.765zm-29.251-4.882 1.289.645-.824 1.237h-.929l-.825-1.237zm-3.092 1.546.989 1.484-1.014 3.043c-.656-1.182-1.204-2.416-1.639-3.694zm2.813 2.336h.559l1.459 4.376c-.538.753-1.106 1.487-1.739 2.178-.633-.691-1.201-1.425-1.739-2.178zm3.397 2.191-1.014-3.043.989-1.484 1.665.832c-.436 1.279-.984 2.513-1.64 3.695zm2.828-9.903c-.075 1.449-.283 2.871-.621 4.257l-3.638-1.819 2.665-2.665zm2.054-11.288v-4c1.103 0 2 .897 2 2s-.897 2-2 2zm-18-2c0-1.103.897-2 2-2h.037c-.015.201-.037.401-.037.605v3.395c-1.103 0-2-.897-2-2zm2.46-4h-.46c-.503 0-.979.104-1.423.274-.264-.92-.577-2.225-.577-3.274 0-1.103.897-2 2-2h.5l1.081-1.442c1.201-1.602 3.114-2.558 5.116-2.558.747 0 1.482.129 2.186.385l6.578 2.392c1.518.552 2.539 2.009 2.539 3.625 0 .315-.039.629-.111.919l-.519 1.936c-.429-.158-.887-.257-1.37-.257h-1c-4.633 0-10.388-3.794-10.445-3.833l-.556-.369-.554.37c-1.405.937-2.433 2.289-2.985 3.832zm1.54 6v-3.395c0-1.709.755-3.309 2.047-4.393 1.563.955 5.874 3.378 9.953 3.741v4.047c0 3.309-2.691 6-6 6s-6-2.691-6-6zm6 8c.828 0 1.628-.127 2.379-.361l.513 2.055-2.892 2.892-2.892-2.892.513-2.055c.751.234 1.551.361 2.379.361zm-4.353 3.061 2.665 2.665-3.638 1.819c-.337-1.386-.546-2.808-.621-4.257zm-5.647 24.939v-15h-2v15h-4v-15.936c0-2.836 1.409-5.469 3.769-7.042 1.044-.696 2.254-1.159 3.498-1.337l.778-.111c.357 6.096 2.905 11.788 7.248 16.132l.707.708.707-.707c4.343-4.344 6.891-10.036 7.248-16.132l.778.111c1.244.178 2.454.641 3.498 1.337 1.098.732 1.989 1.715 2.64 2.855-4.147 2.894-6.871 7.693-6.871 13.122 0 2.512.598 4.882 1.635 7zm23.292 2h5.457c.859 2.062 1.886 3.648 2.76 4.765-3.275-.592-6.157-2.317-8.217-4.765zm13.199 4.765c.874-1.117 1.901-2.703 2.76-4.765h5.457c-2.06 2.448-4.942 4.173-8.217 4.765zm6.782-26.779c-1.972-1.41-4.274-2.375-6.769-2.77-1.612-1.683-2.504-3.876-2.504-6.216 0-4.962 4.037-9 9-9s9 4.038 9 9c0 4.87-3.891 8.84-8.727 8.986z"/></g></svg>